<?xml version="1.0" encoding="utf-8"?>
<!-- Generator: Adobe Illustrator 24.1.2, SVG Export Plug-In . SVG Version: 6.00 Build 0)  -->
<svg version="1.1"
	 id="svg2" inkscape:version="0.91+devel r13869" sodipodi:docname="boltgun.svg" xmlns:cc="http://creativecommons.org/ns#" xmlns:dc="http://purl.org/dc/elements/1.1/" xmlns:inkscape="http://www.inkscape.org/namespaces/inkscape" xmlns:rdf="http://www.w3.org/1999/02/22-rdf-syntax-ns#" xmlns:sodipodi="http://sodipodi.sourceforge.net/DTD/sodipodi-0.dtd" xmlns:svg="http://www.w3.org/2000/svg"
	 xmlns="http://www.w3.org/2000/svg" xmlns:xlink="http://www.w3.org/1999/xlink" x="0px" y="0px" viewBox="0 0 407.2 293.8"
	 style="enable-background:new 0 0 407.2 293.8;" xml:space="preserve">
<style type="text/css">
	.st0{fill:#FFFFFF;stroke:#000000;stroke-miterlimit:10;}
</style>
<defs>
	
		<inkscape:path-effect  cusp_linecap_type="round" effect="powerstroke" end_linecap_type="zerowidth" id="path-effect4584" interpolator_beta="0.2" interpolator_type="CubicBezierJohan" is_visible="true" linejoin_type="extrp_arc" miter_limit="4" offset_points="648,0.5" sort_points="true" start_linecap_type="zerowidth">
		</inkscape:path-effect>
	
		<inkscape:path-effect  cusp_linecap_type="round" effect="powerstroke" end_linecap_type="zerowidth" id="path-effect4580" interpolator_beta="0.2" interpolator_type="CubicBezierJohan" is_visible="true" linejoin_type="extrp_arc" miter_limit="4" offset_points="31,0.5" sort_points="true" start_linecap_type="zerowidth">
		</inkscape:path-effect>
	
		<inkscape:path-effect  cusp_linecap_type="round" effect="powerstroke" end_linecap_type="zerowidth" id="path-effect4570" interpolator_beta="0.2" interpolator_type="CubicBezierJohan" is_visible="true" linejoin_type="extrp_arc" miter_limit="4" offset_points="484,0.5" sort_points="true" start_linecap_type="zerowidth">
		</inkscape:path-effect>
</defs>
<sodipodi:namedview  bordercolor="#666666" borderopacity="1.0" fit-margin-bottom="8" fit-margin-left="8" fit-margin-right="8" fit-margin-top="8" id="base" inkscape:current-layer="layer1" inkscape:cx="195.33722" inkscape:cy="214.94011" inkscape:document-units="mm" inkscape:object-paths="true" inkscape:pageopacity="0.0" inkscape:pageshadow="2" inkscape:snap-global="true" inkscape:zoom="0.62535857" pagecolor="#ffffff" showgrid="false" showguides="false" units="pt">
	</sodipodi:namedview>
<path id="path4222" inkscape:connector-curvature="0" sodipodi:nodetypes="cccccc" class="st0" d="M350.5,9v38.1h-64.3v-17
	c8.3,0,49.1,5.4,49.1-21.1L350.5,9z"/>
<path id="path4224" inkscape:connector-curvature="0" sodipodi:nodetypes="cccccccccc" class="st0" d="M350.5,47.1v57.1H226v17.4
	h-91.8v-17.2c0-9.6-21.5-18.7-28.5,0H66.1V47.3L350.5,47.1z"/>
<path id="path4226" inkscape:connector-curvature="0" class="st0" d="M75.2,47.3l14.8-16h56.9l8,15.9L75.2,47.3z"/>
<path id="path4228" inkscape:connector-curvature="0" class="st0" d="M150.1,37.6h136.1v9.5l-131.3,0.1L150.1,37.6z"/>
<path id="path4249" inkscape:connector-curvature="0" class="st0" d="M350.5,49.8H377v22.7h-26.5V49.8z"/>
<rect id="rect4384" x="244" y="133.9" class="st0" width="89.7" height="31.1"/>
<path id="path4251" inkscape:connector-curvature="0" class="st0" d="M226,104.3l-0.2,66.9H244v-29c0-0.1,0-0.3,0-0.4
	c0-0.2,0-0.3,0-0.5v-0.2h0c0.3-2.1,2.1-3.6,4.2-3.6v0c2.1,0,3.9,1.5,4.2,3.6h0v0c0,0.2,0,0.4,0,0.6c0,0.2,0,0.4,0,0.6v28.8h11.8v-29
	c0-0.1,0-0.3,0-0.4c0-0.2,0-0.3,0-0.5v-0.2h0c0.3-2.1,2.1-3.6,4.2-3.6v0c2.1,0,3.9,1.5,4.2,3.6h0v0c0,0.2,0,0.4,0,0.6
	c0,0.2,0,0.4,0,0.6v28.8h11.8v-29c0-0.1,0-0.3,0-0.4c0-0.2,0-0.3,0-0.5v-0.2h0c0.3-2.1,2.1-3.6,4.2-3.6l0,0c2.1,0,3.9,1.5,4.2,3.6h0
	v0c0,0.2,0,0.4,0.1,0.6c0,0.2,0,0.4-0.1,0.6v28.8h11.8v-29c0-0.1,0-0.3,0-0.4c0-0.2,0-0.3,0-0.5v-0.2h0c0.3-2.1,2.1-3.6,4.2-3.6v0
	c2.1,0,3.9,1.5,4.2,3.6h0v0c0,0.2,0,0.4,0,0.6c0,0.2,0,0.4,0,0.6v28.8h11.8v-29c0-0.1,0-0.3,0-0.4c0-0.2,0-0.3,0-0.5v-0.2h0
	c0.3-2.1,2.1-3.6,4.2-3.6v0c2.1,0,3.9,1.5,4.2,3.6h0v0c0,0.2,0,0.4,0,0.6c0,0.2,0,0.4,0,0.6v28.8h16.8v-66.9L226,104.3L226,104.3z"
	/>
<path id="path4253" inkscape:connector-curvature="0" class="st0" d="M350.5,142H385v15.3h-34.5V142z"/>
<path id="path4255" inkscape:connector-curvature="0" class="st0" d="M350.5,84h47.8v52.2h-47.8V84z"/>
<circle id="path4257" class="st0" cx="374.4" cy="110.1" r="12.4"/>
<circle id="path4259" class="st0" cx="236.1" cy="115" r="4.3"/>
<circle id="path4259-1" class="st0" cx="340.2" cy="115" r="4.3"/>
<circle id="path4259-1-5" class="st0" cx="340.2" cy="57.4" r="4.3"/>
<circle id="path4259-1-5-1" class="st0" cx="340.2" cy="94" r="4.3"/>
<circle id="path4259-1-5-8" class="st0" cx="215.6" cy="111.4" r="4.3"/>
<circle id="path4259-1-5-8-0" class="st0" cx="76.4" cy="57.4" r="4.3"/>
<circle id="path4259-1-5-8-1" class="st0" cx="76.4" cy="94" r="4.3"/>
<rect id="rect4407" x="193.4" y="52.5" class="st0" width="9" height="34.8"/>
<rect id="rect4409" x="141.2" y="58.3" class="st0" width="52.2" height="19.6"/>
<path id="path4411" inkscape:connector-curvature="0" class="st0" d="M202.4,52.5h9l-3,31.8h-6V52.5z"/>
<path id="path4413" inkscape:connector-curvature="0" class="st0" d="M308.8,75.1l-4.2,3.2l-0.2,3.1l-9.2,15.4c1.1,1,3,2.2,5.3,1.7
	l12.9-15.7l0.6-5.8L308.8,75.1z"/>
<path id="path4415" inkscape:connector-curvature="0" class="st0" d="M304.8,75.6l-10.2,0.3l-1.3,1.7l2.2,1.5l-11,14.9
	c2.2,2,5.3,4.7,6,4.9c1.1,0.2,3.9-0.6,3.9-0.6l10-16.8L304.8,75.6z"/>
<path id="path4417" inkscape:connector-curvature="0" class="st0" d="M289.3,74.8l-1.9,1.9l2.3,2.3l-16.3,13.9
	c1.1,1.8,3.9,5.6,7.1,6.4L295.5,79L289.3,74.8z"/>
<path id="path4419" inkscape:connector-curvature="0" class="st0" d="M284.4,73.8l-1.4,0.6l0.5,4.2l-20.4,11.2c-0.8,4-2.7,8,3.8,8.8
	L289.8,79L284.4,73.8z"/>
<path id="path4421" inkscape:connector-curvature="0" class="st0" d="M282.3,68.8l-2.1,0.8l-2.2,4.7L252,85.4
	c0.3,4.5,0.4,6.3,4.6,7.8l26.8-14.7L282.3,68.8z"/>
<path id="path4423" inkscape:connector-curvature="0" class="st0" d="M283.5,62.7l-2.3,0.7l-2.2,2.9l-37,12.2
	c-0.5,6.8,3.7,7.1,5.1,9.1l30.9-13.2L283.5,62.7z"/>
<path id="path4425" inkscape:connector-curvature="0" class="st0" d="M286.8,55.9L271,59.4l-0.1,1.1l-35.7,9.7
	c-1.8,5.4-2.6,9.2,5.7,8.6L279,66.3L286.8,55.9z"/>
<path id="path4427" inkscape:connector-curvature="0" sodipodi:nodetypes="cccccc" class="st0" d="M270.9,60.6l-37,10
	c-9.1-0.2-8.4-2-9.9-10.2l12.9-4.2l34.3-0.6L270.9,60.6z"/>
<path id="path4566" inkscape:connector-curvature="0" sodipodi:nodetypes="ccaaaccaaccc" class="st0" d="M222.9,53.2
	c0.1,0,63.3,0,63.3,0s5,2.2,5.7,4.5c0.6,2.1-2.7,4-2.2,6.1c0.7,3.8,4.1,7.1,7.6,8.7c2.5,1.1,8.1,0,8.1,0l-1.2,6.9
	c0,0-12.5,1.9-18.3,0c-3.1-1-6.3-2.9-7.9-5.7c-2.2-3.6,2.8-6.8-1.8-12.6h-53.5C215.9,60.3,217.3,57.2,222.9,53.2L222.9,53.2z"/>
<path id="path4586" inkscape:connector-curvature="0" sodipodi:nodetypes="assaasassasassaccaaaa" class="st0" d="M300.7,68.4
	c0-3.1,1.7-7.2,4.7-8c4-1.1,9.3-2.4,15.5-2.9c0.7-0.1,0.3,1.5,0.9,1.8c0.6,0.3,1.3-0.6,1.9-0.4c3.2,0.6,5.3,4,8.2,5.4
	c1.6,0.8,0.2,3.6-0.3,5.2c-0.5,2-4.7,4.4-2.8,5.4c3.6,1.8,3.2,2.5,3.7,4.8c0.3,1,0.1,2.5-0.7,3.1c-0.6,0.5-2.3-0.9-2.4-0.1
	c-0.7,3.9,1.7,6.7,0.7,9.9c-0.3,1-0.9,2.6-1.9,2.4c-2.3-0.5-5.1-0.8-8.1-0.7c-0.7,0-0.6-1.3-0.6-1.9c-0.1-1.5,1.3-2.9,0.9-4.4
	c-0.9-3.9-5.1-2.6-7.1-3.9c-0.9-0.7-0.7-2.3-1.6-2.8c-2.5-1.4-6.5,2.1-8.5,0.1c-2.2-2.1,0.6-6.2-0.3-9.1
	C302.6,70.7,300.7,69.8,300.7,68.4L300.7,68.4z"/>
<ellipse id="path4588" transform="matrix(0.5114 -0.8593 0.8593 0.5114 92.1311 313.6199)" class="st0" cx="321.9" cy="75.8" rx="4.6" ry="2.5"/>
<path id="path4590" inkscape:connector-curvature="0" sodipodi:nodetypes="csc" class="st0" d="M309.9,71.1c1.2,0.3,3-1.1,4.8-0.8
	c1.9,0.3,2.8-2.5,3.6-3.9"/>
<path id="path4592" inkscape:connector-curvature="0" class="st0" d="M46.3,56.5l-31,31v45.6h42.5c1.4-4.1,5.3-6.9,9.6-6.9
	c4.4,0,8.2,2.8,9.6,6.9h57.2v52.5h75.6v-32.4h16l0.2-31.5h-91.8v-17.2c0-9.6-21.5-18.7-28.5,0H66.1v-48H46.3z"/>
<path id="path4612" inkscape:connector-curvature="0" sodipodi:nodetypes="ccccccccccacccacccccc" class="st0" d="M77.1,133.1
	c0.4,1.1,0.6,2.2,0.6,3.3c0,5.6-4.6,10.2-10.2,10.2c-0.7,0-1.4-0.1-2.1-0.2l-4.7,6.4l8,5.5c3.7,7.9-1.4,9.8-5.1,10.8l-10.5-6
	l-7.5,17.1l8.1,4.8c0,0-5,7.2-5.7,11.4c-0.6,3.3,1.2,9.9,1.2,9.9L86.4,224l-7.2-10.5c0,0,1.2-23.9,6-34.5c2.6-5.8,12-14.7,12-14.7
	h37.2v-5.4h-25.2c-10.8-7.1-7.4-18.5-4.5-25.8H77.1z"/>
<path id="path4614" inkscape:connector-curvature="0" sodipodi:nodetypes="cccccccc" class="st0" d="M81.3,233.3l-49.2-25.2
	l13.5-27.9l8.1,4.8L48,196.4l1.2,9.9L86.4,224L81.3,233.3z"/>
<path id="path4616" inkscape:connector-curvature="0" sodipodi:nodetypes="ccccc" class="st0" d="M67.7,226.3l-5.3,7.3l-24-12
	l3.7-8.4L67.7,226.3z"/>
<rect id="rect4642" x="53.4" y="63" class="st0" width="12.8" height="11.4"/>
<rect id="rect4644" x="9" y="94.8" class="st0" width="6.3" height="34.5"/>
<rect id="rect4646" x="28.2" y="120.2" class="st0" width="21.9" height="12.9"/>
<rect id="rect4648" x="75.9" y="111.8" class="st0" width="22.8" height="13.5"/>
<rect id="rect4650" x="143.6" y="131" class="st0" width="17.4" height="30.3"/>
<rect id="rect4654" x="145.9" y="161.3" class="st0" width="11.2" height="7.2"/>
<path id="path4656" inkscape:connector-curvature="0" class="st0" d="M143.6,138.6H161"/>
<path id="path4658" inkscape:connector-curvature="0" class="st0" d="M143.6,146.2H161"/>
<path id="path4660" inkscape:connector-curvature="0" class="st0" d="M143.6,153.7H161"/>
<path id="rect4662" inkscape:connector-curvature="0" class="st0" d="M104.6,133.1c-2.9,7.3-6.3,18.7,4.5,25.8v-25.8H104.6z"/>
<path id="path4664" inkscape:connector-curvature="0" sodipodi:nodetypes="ccccc" class="st0" d="M118.6,133.1
	c-1.2,6.9-5.3,19.3,6.4,25.8l-15.9,0v-25.8L118.6,133.1z"/>
<circle id="path4693" class="st0" cx="119.3" cy="111.2" r="8.1"/>
<circle id="path4695" class="st0" cx="39.1" cy="96.6" r="14.1"/>
<path id="path4699" inkscape:connector-curvature="0" class="st0" d="M79.1,168.3c-2.9,0-5.3,2.4-5.3,5.3c0,1.7,0.8,3.3,2.2,4.3l0,0
	l0,0c0.2,0.2,0.5,0.3,0.8,0.5l9.1,5.2c0.6,0.5,1.3,1,2.1,1.2l0,0v0c0.5,0.2,1,0.2,1.5,0.2c2.9,0,5.3-2.4,5.3-5.3c0,0,0,0,0,0
	c0-1.9-1-3.6-2.6-4.6l0,0l-9.6-5.6c-0.5-0.4-1-0.7-1.6-0.9l0,0l0,0C80.3,168.4,79.7,168.3,79.1,168.3L79.1,168.3z"/>
<path id="path4699-1" inkscape:connector-curvature="0" class="st0" d="M70.8,190.5c-2.9,0-5.3,2.4-5.3,5.3c0,1.7,0.8,3.3,2.2,4.3
	l0,0l0,0c0.2,0.2,0.5,0.3,0.8,0.5l9.1,5.2c0.6,0.5,1.3,1,2.1,1.2l0,0v0c0.5,0.2,1,0.2,1.5,0.2c2.9,0,5.3-2.4,5.3-5.3c0,0,0,0,0,0
	c0-1.9-1-3.6-2.6-4.6l0,0l-9.6-5.6c-0.5-0.4-1-0.7-1.6-0.9l0,0l0,0C72,190.6,71.4,190.5,70.8,190.5L70.8,190.5z"/>
<path id="path4734" inkscape:connector-curvature="0" class="st0" d="M64.5,155.4l-6.8,10.3l0,0l5.9,3.4c3.7-1,8.8-2.9,5.1-10.8
	L64.5,155.4L64.5,155.4L64.5,155.4z"/>
<rect id="rect4752" x="157.3" y="246" transform="matrix(0.8554 -0.518 0.518 0.8554 -103.6506 139.1167)" class="st0" width="80.1" height="18.3"/>
<path id="path4754" inkscape:connector-curvature="0" sodipodi:nodetypes="caccaacc" class="st0" d="M207,185.6c0,0-1,15.5,1.1,22.8
	c2.3,8.1,12.3,22.1,12.3,22.1L164,264.6c0,0-10.6-15.6-14.3-24.2c-3.8-8.7-6.7-17.9-8.2-27.3c-1.4-9.1-0.5-27.5-0.5-27.5L207,185.6z
	"/>
<path id="path4771" inkscape:connector-curvature="0" sodipodi:nodetypes="ccccc" class="st0" d="M174.5,279.7l3.2,4.8l8.1-5.3
	l-3.3-4.3L174.5,279.7z"/>
<path id="path4773" inkscape:connector-curvature="0" sodipodi:nodetypes="ccccc" class="st0" d="M188.6,271.2l3.1,5l10.4-6.6
	l-3-4.8L188.6,271.2z"/>
<path id="path4775" inkscape:connector-curvature="0" class="st0" d="M204.3,261.6l3.3,5l10.8-6.6l-2.8-5.3L204.3,261.6z"/>
<path id="path4777" inkscape:connector-curvature="0" sodipodi:nodetypes="ccccc" class="st0" d="M219.4,252.5l2.8,4.4l8.7-5.7
	l-2.4-4.2L219.4,252.5z"/>
<path id="path4779" inkscape:connector-curvature="0" sodipodi:nodetypes="caccacc" class="st0" d="M190.4,185.6
	c0,0-0.8,11.1,0.6,16.4c1.8,6.4,9.5,17.4,9.5,17.4c-1.5,4.2-2.6,3.8-6.8,4c0,0-8.2-11.9-10.2-18.7c-1.8-6.1-1.3-19.1-1.3-19.1H190.4
	z"/>
<path id="path4781" inkscape:connector-curvature="0" sodipodi:nodetypes="caccacc" class="st0" d="M164.8,185.6
	c0,0-1.8,13-0.6,19.3c1.9,10.2,11.9,28.6,11.9,28.6c-1.7,6.3-2.2,4.9-8.5,5.1c0,0-9.2-17.4-11.4-26.9c-2.1-8.5-1.9-26.1-1.9-26.1
	H164.8z"/>
</svg>
